<svg width="10" height="10" viewBox="0 0 10 10" fill="none" xmlns="http://www.w3.org/2000/svg">
<g clip-path="url(#clip0_466_122)">
<path d="M3.75065 7.91644C1.66732 8.54144 1.66732 6.87477 0.833984 6.66644M6.66732 9.16644V7.55394C6.68295 7.35525 6.6561 7.15552 6.58857 6.96802C6.52104 6.78051 6.41437 6.60953 6.27565 6.46644C7.58398 6.3206 8.95898 5.82477 8.95898 3.54977C8.95888 2.96803 8.73511 2.4086 8.33398 1.98727C8.52392 1.47831 8.51049 0.915749 8.29648 0.416437C8.29648 0.416437 7.80482 0.270604 6.66732 1.0331C5.71232 0.77428 4.70565 0.77428 3.75065 1.0331C2.61315 0.270604 2.12148 0.416437 2.12148 0.416437C1.90747 0.915749 1.89404 1.47831 2.08398 1.98727C1.67987 2.41173 1.45587 2.97621 1.45898 3.56227C1.45898 5.8206 2.83398 6.31644 4.14232 6.47894C4.00523 6.62059 3.89951 6.78952 3.83203 6.97474C3.76455 7.15995 3.73682 7.3573 3.75065 7.55394V9.16644" stroke="#1E1E1E" stroke-linecap="round" stroke-linejoin="round"/>
</g>
<defs>
<clipPath id="clip0_466_122">
<rect width="10" height="10" fill="white"/>
</clipPath>
</defs>
</svg>
